<?xml version="1.0" standalone="no"?>
<!DOCTYPE svg PUBLIC "-//W3C//DTD SVG 20010904//EN"
 "http://www.w3.org/TR/2001/REC-SVG-20010904/DTD/svg10.dtd">
<svg version="1.0" xmlns="http://www.w3.org/2000/svg"
 width="2935.000000pt" height="1517.000000pt" viewBox="0 0 2935.000000 1517.000000"
 preserveAspectRatio="xMidYMid meet">

<g transform="translate(0.000000,1517.000000) scale(0.100000,-0.100000)"
fill="#000000" stroke="none">
<path d="M20955 11930 c0 -696 1 -980 2 -632 2 347 2 917 0 1265 -1 347 -2 63
-2 -633z"/>
<path d="M27085 11880 c0 -696 1 -980 2 -632 2 347 2 917 0 1265 -1 347 -2 63
-2 -633z"/>
<path d="M20230 12708 c0 -9 -6 -19 -12 -21 -10 -4 -10 -6 0 -6 9 -1 12 -68
12 -299 l0 -298 -77 -10 c-111 -15 -200 -60 -282 -143 -77 -77 -124 -160 -151
-267 -83 -323 124 -656 432 -698 l78 -10 3 -156 3 -155 2 157 2 157 38 6 c205
35 366 191 422 411 82 319 -117 647 -423 699 l-37 6 0 316 c1 173 -1 318 -4
321 -4 3 -6 -2 -6 -10z"/>
<path d="M26360 12658 c0 -9 -6 -19 -12 -21 -10 -4 -10 -6 0 -6 9 -1 12 -68
12 -299 l0 -298 -77 -10 c-111 -15 -200 -60 -282 -143 -77 -77 -124 -160 -151
-267 -83 -323 124 -656 432 -698 l78 -10 3 -156 3 -155 2 157 2 157 38 6 c205
35 366 191 422 411 82 319 -117 647 -423 699 l-37 6 0 316 c1 173 -1 318 -4
321 -4 3 -6 -2 -6 -10z"/>
<path d="M6095 11725 c0 -363 1 -510 2 -327 2 184 2 481 0 660 -1 180 -2 30
-2 -333z"/>
<path d="M10768 12155 c-158 -43 -236 -155 -226 -325 9 -161 86 -227 311 -265
179 -31 217 -53 217 -128 0 -82 -65 -121 -200 -120 -94 0 -181 24 -252 69 -22
14 -41 24 -43 22 -1 -2 -21 -37 -44 -79 l-42 -77 51 -31 c118 -73 308 -108
445 -82 92 17 181 65 218 118 44 62 55 97 56 178 1 104 -13 142 -73 200 -56
56 -99 73 -291 115 -84 19 -105 28 -132 55 -44 44 -46 94 -5 135 69 69 219 65
355 -8 26 -14 49 -23 51 -21 2 2 20 37 41 78 43 86 44 83 -50 127 -113 52
-278 69 -387 39z"/>
<path d="M6770 11650 l0 -510 345 0 346 0 -3 93 -3 92 -247 3 -248 2 0 110 0
110 210 0 210 0 0 95 0 95 -210 0 -211 0 3 118 3 117 248 3 247 2 0 90 0 90
-345 0 -345 0 0 -510z"/>
<path d="M7630 11650 l0 -510 90 0 90 0 2 346 3 347 91 -289 90 -289 82 -3
c81 -3 82 -2 92 24 6 14 47 146 92 293 45 146 85 270 90 276 4 5 8 -152 8
-348 l0 -357 85 0 85 0 0 510 0 510 -127 0 -128 0 -95 -340 c-52 -186 -98
-336 -101 -332 -3 4 -48 157 -99 340 l-94 332 -128 0 -128 0 0 -510z"/>
<path d="M8750 11650 l0 -510 345 0 346 0 -3 93 -3 92 -247 3 -248 2 0 110 0
110 210 0 210 0 0 95 0 95 -210 0 -211 0 3 118 3 117 248 3 247 2 0 90 0 90
-345 0 -345 0 0 -510z"/>
<path d="M9610 11650 l0 -510 95 0 95 0 0 205 0 205 63 0 62 0 114 -205 114
-205 113 0 c63 0 114 2 114 4 0 3 -54 97 -119 211 l-120 206 40 15 c57 23 126
104 145 171 25 86 16 195 -21 268 -34 66 -93 118 -153 135 -21 5 -146 10 -289
10 l-253 0 0 -510z m480 315 c65 -34 75 -141 18 -202 -21 -22 -27 -23 -165
-23 l-143 0 0 120 0 120 130 0 c97 0 139 -4 160 -15z"/>
<path d="M11542 11657 c-105 -277 -192 -507 -192 -511 0 -4 46 -5 101 -4 l102
3 26 75 26 75 190 3 190 2 29 -80 28 -80 103 0 103 0 -88 228 c-47 125 -135
354 -195 510 l-108 282 -61 0 -61 0 -193 -503z m321 -4 l56 -163 -119 0 c-66
0 -120 4 -120 9 0 24 114 331 120 324 4 -4 32 -81 63 -170z"/>
<path d="M5565 11793 c-30 -8 -109 -55 -119 -71 -4 -8 -17 -21 -28 -31 -39
-33 -53 -81 -53 -181 0 -103 9 -125 79 -196 128 -128 324 -119 442 19 67 78
64 71 64 173 0 107 -15 150 -71 200 -18 16 -43 39 -56 52 -37 34 -182 54 -258
35z"/>
<path d="M5793 11033 c54 -2 139 -2 190 0 51 1 7 3 -98 3 -104 0 -146 -2 -92
-3z"/>
<path d="M20433 10593 c86 -2 228 -2 315 0 86 1 15 3 -158 3 -173 0 -244 -2
-157 -3z"/>
<path d="M26563 10543 c86 -2 228 -2 315 0 86 1 15 3 -158 3 -173 0 -244 -2
-157 -3z"/>
<path d="M11135 8196 c-33 -17 -87 -47 -120 -66 -95 -54 -167 -90 -182 -90 -7
0 -16 -7 -19 -15 -4 -8 -15 -15 -25 -15 -11 0 -22 -7 -25 -15 -4 -8 -15 -15
-25 -15 -46 0 -23 -59 29 -74 12 -4 22 -12 22 -17 0 -5 7 -9 16 -9 9 0 28 -9
44 -20 15 -11 38 -24 51 -30 13 -5 53 -28 88 -50 34 -22 65 -40 67 -40 3 0 22
-11 44 -25 22 -14 46 -25 54 -25 8 0 16 -6 19 -12 5 -17 48 5 66 34 11 18 9
24 -15 49 -15 16 -32 29 -36 29 -5 0 -38 20 -74 45 -35 25 -71 45 -79 45 -8 0
-15 7 -15 15 0 8 -9 15 -20 15 -11 0 -23 7 -26 15 -4 8 -14 15 -23 15 -9 0
-24 9 -34 20 -13 15 -14 20 -3 20 8 0 16 7 20 15 3 8 15 15 26 15 11 0 23 7
26 15 4 8 12 15 19 15 7 0 47 18 89 40 l76 40 0 -34 c0 -29 -4 -34 -29 -39
-25 -5 -31 -13 -37 -42 -8 -46 -2 -60 35 -76 18 -8 31 -21 31 -31 0 -15 9 -18
55 -18 l55 0 0 150 c0 150 0 151 -26 175 -34 31 -45 30 -119 -9z"/>
<path d="M4230 8213 c-35 -13 -105 -46 -110 -52 -8 -9 -40 -29 -90 -53 -25
-12 -47 -24 -50 -27 -3 -3 -22 -14 -42 -23 -21 -10 -38 -22 -38 -26 0 -5 -18
-14 -40 -21 -22 -6 -54 -25 -70 -41 -17 -17 -37 -30 -45 -30 -17 0 -52 -18
-73 -37 -7 -7 -20 -13 -27 -13 -8 0 -27 -11 -42 -25 -15 -14 -33 -29 -40 -35
-7 -5 -23 -10 -37 -10 -13 0 -26 -6 -29 -13 -3 -8 -26 -23 -50 -35 -25 -12
-48 -26 -52 -32 -3 -5 -14 -10 -25 -10 -19 0 -30 -19 -30 -54 0 -17 11 -26 45
-40 25 -11 45 -25 45 -31 0 -7 12 -15 28 -18 15 -3 37 -15 49 -26 12 -12 29
-21 37 -21 8 0 33 -16 56 -35 23 -19 46 -35 52 -35 5 0 24 -11 41 -24 18 -13
41 -27 53 -30 12 -4 33 -20 48 -36 14 -17 34 -30 44 -30 10 0 33 -11 52 -25
19 -14 39 -25 45 -25 6 0 22 -11 35 -24 12 -14 35 -28 50 -31 15 -3 44 -21 65
-40 21 -19 46 -35 56 -35 10 0 21 -4 24 -10 10 -16 64 -11 84 8 10 9 26 29 36
45 9 15 24 27 31 27 8 0 14 10 14 25 0 19 -8 28 -35 39 -19 8 -35 19 -35 25 0
5 -13 14 -29 19 -16 6 -42 24 -57 41 -15 17 -33 31 -41 31 -7 0 -13 5 -13 10
0 6 -9 10 -20 10 -11 0 -20 5 -20 10 0 6 -12 16 -27 23 -16 6 -40 24 -55 40
-15 15 -33 27 -40 27 -7 0 -25 11 -40 25 -15 14 -30 25 -33 25 -3 0 -15 9 -27
20 -12 11 -29 20 -38 20 -8 0 -24 11 -34 25 -10 14 -24 25 -31 25 -7 0 -15 7
-19 15 -3 8 -12 15 -20 15 -8 0 -16 6 -18 12 -6 16 34 48 59 48 11 0 26 11 33
25 10 18 22 25 44 25 20 0 40 10 58 28 15 15 49 39 77 52 28 14 51 28 51 33 0
4 11 7 25 7 14 0 25 4 25 8 0 11 78 62 96 62 10 0 14 -15 14 -60 0 -59 -1 -61
-30 -66 -16 -4 -46 -22 -66 -41 -33 -31 -37 -40 -37 -86 -1 -58 24 -107 54
-107 10 0 21 -4 24 -10 3 -5 17 -10 31 -10 22 0 24 -4 24 -45 l0 -46 88 3 87
3 3 295 2 295 -38 43 c-36 40 -57 48 -92 35z"/>
<path d="M8818 8185 c-158 -43 -236 -155 -226 -325 9 -161 86 -227 311 -265
179 -31 217 -53 217 -128 0 -82 -65 -121 -200 -120 -94 0 -181 24 -252 69 -22
14 -41 24 -43 22 -1 -2 -21 -37 -44 -79 l-42 -77 51 -31 c118 -73 308 -108
445 -82 92 17 181 65 218 118 44 62 55 97 56 178 1 104 -13 142 -73 200 -56
56 -99 73 -291 115 -84 19 -105 28 -132 55 -44 44 -46 94 -5 135 69 69 219 65
355 -8 26 -14 49 -23 51 -21 2 2 20 37 41 78 43 86 44 83 -50 127 -113 52
-278 69 -387 39z"/>
<path d="M4820 7680 l0 -510 345 0 346 0 -3 93 -3 92 -247 3 -248 2 0 110 0
110 210 0 210 0 0 95 0 95 -210 0 -211 0 3 118 3 117 248 3 247 2 0 90 0 90
-345 0 -345 0 0 -510z"/>
<path d="M5680 7680 l0 -510 90 0 90 0 2 346 3 347 91 -289 90 -289 82 -3 c81
-3 82 -2 92 24 6 14 47 146 92 293 45 146 85 270 90 276 4 5 8 -152 8 -348 l0
-357 85 0 85 0 0 510 0 510 -127 0 -128 0 -95 -340 c-52 -186 -98 -336 -101
-332 -3 4 -48 157 -99 340 l-94 332 -128 0 -128 0 0 -510z"/>
<path d="M6800 7680 l0 -510 345 0 346 0 -3 93 -3 92 -247 3 -248 2 0 110 0
110 210 0 210 0 0 95 0 95 -210 0 -211 0 3 118 3 117 248 3 247 2 0 90 0 90
-345 0 -345 0 0 -510z"/>
<path d="M7660 7680 l0 -510 95 0 95 0 0 205 0 205 63 0 62 0 114 -205 114
-205 113 0 c63 0 114 2 114 4 0 3 -54 97 -119 211 l-120 206 40 15 c57 23 126
104 145 171 25 86 16 195 -21 268 -34 66 -93 118 -153 135 -21 5 -146 10 -289
10 l-253 0 0 -510z m480 315 c65 -34 75 -141 18 -202 -21 -22 -27 -23 -165
-23 l-143 0 0 120 0 120 130 0 c97 0 139 -4 160 -15z"/>
<path d="M9592 7687 c-105 -277 -192 -507 -192 -511 0 -4 46 -5 101 -4 l102 3
26 75 26 75 190 3 190 2 29 -80 28 -80 103 0 103 0 -88 228 c-47 125 -135 354
-195 510 l-108 282 -61 0 -61 0 -193 -503z m321 -4 l56 -163 -119 0 c-66 0
-120 4 -120 9 0 24 114 331 120 324 4 -4 32 -81 63 -170z"/>
<path d="M12080 8095 c0 -69 3 -85 15 -85 10 0 15 11 15 35 0 33 2 35 35 35
24 0 35 5 35 15 0 10 -11 15 -35 15 -28 0 -35 4 -35 20 0 17 7 20 40 20 29 0
40 4 40 15 0 12 -13 15 -55 15 l-55 0 0 -85z"/>
<path d="M12227 8162 c-24 -26 -23 -113 1 -135 46 -42 102 -4 102 68 0 73 -62
113 -103 67z m61 -24 c30 -30 3 -108 -33 -94 -15 6 -22 86 -8 99 10 11 28 8
41 -5z"/>
<path d="M12360 8095 c0 -69 3 -85 15 -85 12 0 15 13 15 58 l1 57 30 -57 c21
-41 35 -58 49 -58 18 0 20 7 20 85 0 69 -3 85 -15 85 -12 0 -15 -14 -16 -62
l0 -63 -32 63 c-21 41 -37 62 -49 62 -16 0 -18 -10 -18 -85z"/>
<path d="M12510 8165 c0 -8 9 -15 20 -15 18 0 20 -7 20 -70 0 -56 3 -70 15
-70 12 0 15 14 15 70 0 68 1 70 25 70 16 0 25 6 25 15 0 12 -13 15 -60 15 -47
0 -60 -3 -60 -15z"/>
<path d="M12820 8095 l0 -85 48 0 c26 0 53 5 60 12 17 17 15 55 -4 66 -15 8
-15 10 0 15 22 9 20 54 -3 67 -11 5 -38 10 -60 10 l-41 0 0 -85z m85 35 c0 -9
-11 -16 -27 -18 -23 -3 -28 1 -28 18 0 17 5 21 28 18 16 -2 27 -9 27 -18z m0
-70 c0 -9 -11 -16 -27 -18 -23 -3 -28 1 -28 18 0 17 5 21 28 18 16 -2 27 -9
27 -18z"/>
<path d="M13016 8172 c-8 -13 -56 -144 -56 -153 0 -5 7 -9 15 -9 8 0 15 7 15
15 0 10 10 15 34 15 21 0 36 -6 40 -15 3 -8 13 -15 22 -15 11 0 14 5 10 18
-52 140 -66 166 -80 144z m27 -82 c4 -15 0 -20 -15 -20 -14 0 -18 5 -14 16 3
9 6 20 6 25 0 17 17 1 23 -21z"/>
<path d="M13130 8095 c0 -69 3 -85 15 -85 10 0 15 11 15 35 0 32 2 35 30 35
28 0 30 -3 30 -35 0 -24 5 -35 15 -35 12 0 15 16 15 85 0 69 -3 85 -15 85 -10
0 -15 -11 -15 -35 0 -32 -2 -35 -30 -35 -28 0 -30 3 -30 35 0 24 -5 35 -15 35
-12 0 -15 -16 -15 -85z"/>
<path d="M13290 8095 c0 -69 3 -85 15 -85 12 0 15 13 15 58 l1 57 30 -57 c21
-41 35 -58 49 -58 18 0 20 7 20 85 0 69 -3 85 -15 85 -12 0 -15 -14 -16 -62
l0 -63 -32 63 c-21 41 -37 62 -49 62 -16 0 -18 -10 -18 -85z"/>
<path d="M13478 8169 c-20 -11 -24 -64 -6 -75 6 -4 25 -10 41 -13 17 -4 32
-12 35 -19 6 -18 -27 -27 -59 -15 -22 8 -29 8 -33 -3 -6 -15 23 -34 53 -34 77
0 92 79 18 98 -46 12 -42 38 6 35 25 -2 37 2 37 11 0 23 -61 33 -92 15z"/>
<path d="M13626 8164 c-11 -10 -16 -34 -16 -69 0 -59 17 -85 53 -85 28 0 41 9
56 38 10 19 9 22 -5 22 -9 0 -22 -7 -29 -17 -22 -30 -45 -9 -45 42 0 51 23 72
45 42 7 -10 20 -17 29 -17 14 0 15 3 5 23 -7 12 -17 25 -23 29 -19 13 -54 9
-70 -8z"/>
<path d="M13760 8095 c0 -69 3 -85 15 -85 10 0 15 11 15 35 0 32 2 35 30 35
28 0 30 -3 30 -35 0 -24 5 -35 15 -35 12 0 15 16 15 85 0 69 -3 85 -15 85 -10
0 -15 -11 -15 -35 0 -32 -2 -35 -30 -35 -28 0 -30 3 -30 35 0 24 -5 35 -15 35
-12 0 -15 -16 -15 -85z"/>
<path d="M13920 8095 c0 -69 3 -85 15 -85 10 0 15 11 15 35 0 19 4 35 9 35 5
0 19 -16 31 -35 12 -19 28 -35 36 -35 17 0 17 8 0 39 -11 20 -11 28 2 51 13
23 14 33 4 54 -10 23 -17 26 -62 26 l-50 0 0 -85z m85 35 c0 -9 -11 -16 -27
-18 -23 -3 -28 1 -28 18 0 17 5 21 28 18 16 -2 27 -9 27 -18z"/>
<path d="M14080 8095 c0 -69 3 -85 15 -85 12 0 15 16 15 85 0 69 -3 85 -15 85
-12 0 -15 -16 -15 -85z"/>
<path d="M14150 8095 c0 -69 3 -85 15 -85 10 0 15 11 15 35 0 33 2 35 35 35
24 0 35 5 35 15 0 10 -11 15 -35 15 -28 0 -35 4 -35 20 0 18 7 20 60 20 l60 0
0 -70 c0 -56 3 -70 15 -70 12 0 15 14 15 70 0 68 1 70 25 70 16 0 25 6 25 15
0 12 -19 15 -115 15 l-115 0 0 -85z"/>
<path d="M12700 8115 c0 -8 7 -15 15 -15 8 0 15 7 15 15 0 8 -7 15 -15 15 -8
0 -15 -7 -15 -15z"/>
<path d="M12700 8025 c0 -8 7 -15 15 -15 8 0 15 7 15 15 0 8 -7 15 -15 15 -8
0 -15 -7 -15 -15z"/>
<path d="M12080 7805 l0 -85 55 0 c42 0 55 3 55 15 0 11 -11 15 -40 15 l-40 0
0 70 c0 56 -3 70 -15 70 -12 0 -15 -16 -15 -85z"/>
<path d="M12237 7872 c-24 -26 -23 -113 1 -135 46 -42 102 -4 102 68 0 73 -62
113 -103 67z m61 -24 c30 -30 3 -108 -33 -94 -15 6 -22 86 -8 99 10 11 28 8
41 -5z"/>
<path d="M12387 7872 c-22 -25 -23 -115 -1 -136 35 -36 104 -3 104 49 0 21 -5
25 -30 25 -20 0 -30 -5 -30 -15 0 -8 8 -15 17 -15 16 0 16 -2 2 -15 -27 -27
-49 -8 -49 40 0 46 20 65 46 44 7 -6 21 -9 31 -7 16 3 16 5 -5 26 -27 27 -63
28 -85 4z"/>
<path d="M12547 7872 c-24 -26 -23 -113 1 -135 46 -42 102 -4 102 68 0 73 -62
113 -103 67z m61 -24 c30 -30 3 -108 -33 -94 -15 6 -22 86 -8 99 10 11 28 8
41 -5z"/>
<path d="M12850 7805 c0 -69 3 -85 15 -85 11 0 15 13 16 53 l1 52 15 -42 c8
-24 20 -43 27 -43 7 0 19 19 27 43 l14 42 3 -52 c2 -38 7 -53 18 -53 11 0 14
18 14 86 0 82 -1 85 -22 82 -17 -2 -26 -15 -38 -58 l-17 -55 -17 58 c-13 44
-21 57 -36 57 -18 0 -20 -7 -20 -85z"/>
<path d="M13086 7882 c-8 -13 -56 -144 -56 -153 0 -5 7 -9 15 -9 8 0 15 7 15
15 0 10 10 15 34 15 21 0 36 -6 40 -15 3 -8 13 -15 22 -15 11 0 14 5 10 18
-52 140 -66 166 -80 144z m27 -82 c4 -15 0 -20 -15 -20 -14 0 -18 5 -14 16 3
9 6 20 6 25 0 17 17 1 23 -21z"/>
<path d="M13200 7805 c0 -69 3 -85 15 -85 10 0 15 11 15 35 0 19 4 35 9 35 5
0 19 -16 31 -35 12 -19 28 -35 36 -35 17 0 17 8 0 39 -11 20 -11 28 2 51 13
23 14 33 4 54 -10 23 -17 26 -62 26 l-50 0 0 -85z m85 35 c0 -9 -11 -16 -27
-18 -23 -3 -28 1 -28 18 0 17 5 21 28 18 16 -2 27 -9 27 -18z"/>
<path d="M13340 7875 c0 -8 9 -15 20 -15 18 0 20 -7 20 -70 0 -56 3 -70 15
-70 12 0 15 14 15 70 0 68 1 70 25 70 16 0 25 6 25 15 0 12 -13 15 -60 15 -47
0 -60 -3 -60 -15z"/>
<path d="M13480 7805 c0 -69 3 -85 15 -85 12 0 15 16 15 85 0 69 -3 85 -15 85
-12 0 -15 -16 -15 -85z"/>
<path d="M13550 7805 c0 -69 3 -85 15 -85 12 0 15 13 15 58 l1 57 30 -57 c21
-41 35 -58 49 -58 18 0 20 7 20 85 0 69 -3 85 -15 85 -12 0 -15 -14 -16 -62
l0 -63 -32 63 c-21 41 -37 62 -49 62 -16 0 -18 -10 -18 -85z"/>
<path d="M13780 7805 c0 -69 3 -85 15 -85 8 0 15 8 15 18 0 10 6 27 14 37 13
19 15 18 32 -18 11 -23 25 -37 36 -37 18 0 17 4 -8 50 l-27 50 21 30 c27 35
27 40 5 40 -10 0 -30 -19 -45 -43 l-28 -42 0 43 c0 31 -4 42 -15 42 -12 0 -15
-16 -15 -85z"/>
<path d="M13930 7805 c0 -69 3 -85 15 -85 10 0 15 11 15 35 0 19 4 35 9 35 5
0 19 -16 31 -35 12 -19 28 -35 36 -35 17 0 17 8 0 39 -11 20 -11 28 2 51 13
23 14 33 4 54 -10 23 -17 26 -62 26 l-50 0 0 -85z m85 35 c0 -9 -11 -16 -27
-18 -23 -3 -28 1 -28 18 0 17 5 21 28 18 16 -2 27 -9 27 -18z"/>
<path d="M14090 7821 c0 -78 13 -101 59 -101 45 0 61 27 61 103 0 53 -3 67
-15 67 -12 0 -15 -14 -15 -64 0 -56 -3 -66 -20 -71 -33 -10 -40 3 -40 71 0 50
-3 64 -15 64 -12 0 -15 -14 -15 -69z"/>
<path d="M14250 7805 c0 -69 3 -85 15 -85 10 0 15 11 15 35 0 32 2 35 29 35
34 0 61 23 61 50 0 31 -28 50 -76 50 l-44 0 0 -85z m85 35 c0 -9 -11 -16 -27
-18 -23 -3 -28 1 -28 18 0 17 5 21 28 18 16 -2 27 -9 27 -18z"/>
<path d="M14400 7805 c0 -69 3 -85 15 -85 12 0 15 16 15 85 0 69 -3 85 -15 85
-12 0 -15 -16 -15 -85z"/>
<path d="M14470 7805 c0 -69 3 -85 15 -85 8 0 15 8 15 18 0 10 6 27 14 37 13
19 15 18 32 -18 11 -23 25 -37 36 -37 18 0 17 4 -8 50 l-27 50 21 30 c27 35
27 40 5 40 -10 0 -30 -19 -45 -43 l-28 -42 0 43 c0 31 -4 42 -15 42 -12 0 -15
-16 -15 -85z"/>
<path d="M12730 7825 c0 -8 7 -15 15 -15 8 0 15 7 15 15 0 8 -7 15 -15 15 -8
0 -15 -7 -15 -15z"/>
<path d="M12730 7735 c0 -8 7 -15 15 -15 8 0 15 7 15 15 0 8 -7 15 -15 15 -8
0 -15 -7 -15 -15z"/>
<path d="M260 3895 l0 -2015 8685 0 8685 0 0 2015 0 2015 -8685 0 -8685 0 0
-2015z m5626 1231 c8 -8 14 -19 14 -24 0 -5 19 -27 43 -48 23 -22 55 -55 70
-75 l27 -36 0 -662 c0 -561 -2 -665 -14 -677 -19 -19 -375 -21 -394 -2 -7 7
-12 43 -12 94 l0 81 50 6 c72 9 124 47 213 156 13 17 17 41 17 117 0 107 -15
150 -71 200 -18 16 -43 40 -57 52 -17 16 -46 27 -89 34 l-64 11 3 163 c3 156
2 162 -15 143 -10 -10 -26 -19 -36 -19 -10 0 -38 -15 -62 -32 -24 -18 -71 -46
-104 -63 -33 -16 -62 -33 -65 -36 -3 -3 -20 -11 -37 -18 -18 -8 -33 -18 -33
-23 0 -5 -20 -18 -45 -29 -24 -11 -57 -30 -73 -44 -15 -13 -48 -31 -73 -41
-24 -9 -52 -25 -62 -36 -10 -10 -30 -21 -45 -24 -15 -4 -29 -10 -32 -13 -10
-12 -69 -51 -77 -51 -5 0 -33 -16 -63 -36 -30 -20 -72 -42 -92 -50 -20 -7 -46
-22 -57 -33 -12 -12 -28 -21 -36 -21 -8 0 -15 -4 -15 -8 0 -5 -18 -17 -40 -27
-22 -10 -40 -22 -40 -26 0 -4 -7 -9 -16 -11 -21 -4 41 -68 66 -68 10 0 23 -7
30 -15 6 -8 37 -31 68 -51 32 -21 59 -41 63 -46 12 -18 114 -88 128 -88 9 0
29 -13 44 -29 15 -17 48 -40 72 -52 25 -12 47 -31 51 -41 3 -10 12 -18 20 -18
8 0 25 -9 37 -21 12 -11 38 -29 57 -40 39 -21 158 -106 183 -129 8 -8 39 -28
67 -45 29 -16 74 -47 101 -67 26 -21 51 -38 54 -38 7 0 26 -15 61 -47 14 -13
29 -23 34 -23 4 0 10 -4 12 -8 2 -5 29 -23 61 -41 31 -18 57 -36 57 -41 0 -4
19 -18 43 -29 49 -25 87 -55 87 -69 0 -5 11 -13 25 -16 23 -6 25 -11 25 -61 0
-47 -3 -57 -25 -71 -14 -9 -25 -25 -25 -35 0 -11 -3 -19 -8 -19 -13 0 -113
-97 -126 -121 -10 -21 -20 -24 -74 -27 -50 -2 -66 1 -83 17 -12 11 -35 25 -53
32 -17 7 -40 21 -50 31 -11 10 -29 21 -40 24 -12 4 -23 9 -26 13 -3 3 -16 12
-30 20 -67 39 -137 83 -156 99 -23 19 -59 40 -154 90 -36 18 -73 42 -82 52
-10 11 -38 28 -62 38 -24 11 -53 29 -64 40 -10 10 -42 29 -71 42 -28 13 -51
27 -51 32 0 4 -6 8 -13 8 -7 0 -22 8 -33 19 -11 10 -30 22 -42 25 -12 4 -22
12 -22 17 0 5 -6 9 -12 9 -7 0 -26 12 -43 26 -16 14 -58 39 -92 55 -35 16 -63
33 -63 39 0 5 -11 12 -25 16 -14 3 -25 9 -25 13 0 3 -21 18 -47 31 -26 14 -66
39 -90 57 -23 17 -56 34 -73 38 -16 4 -36 15 -43 25 -7 10 -33 27 -58 39 -26
12 -57 33 -69 47 -13 13 -31 24 -39 24 -9 0 -36 16 -60 35 -24 19 -49 35 -55
35 -6 0 -34 15 -62 33 -28 17 -59 37 -70 43 -27 16 -28 140 -2 155 9 5 24 16
32 24 8 8 20 15 26 15 17 0 69 29 91 51 10 10 26 19 34 19 8 0 15 3 15 8 0 4
10 12 23 18 36 17 161 85 172 94 6 4 33 20 60 35 28 16 73 43 101 61 28 19 55
34 60 34 14 0 248 140 252 151 2 5 12 9 22 9 9 0 23 7 30 15 6 8 22 17 33 21
25 7 135 73 155 91 7 7 22 13 32 13 11 0 23 6 27 14 4 7 62 42 128 76 66 34
125 69 131 76 6 8 29 21 50 30 21 9 48 24 59 34 19 16 41 28 138 76 20 10 37
21 37 24 0 3 15 11 34 18 18 7 41 21 51 32 10 11 28 20 39 20 12 0 44 15 71
34 28 18 69 37 93 41 23 4 42 11 42 16 0 15 100 11 116 -5z m5059 -408 c11 -2
26 -7 33 -11 6 -5 16 -6 21 -2 5 3 12 1 16 -4 3 -6 12 -8 20 -4 8 3 15 0 15
-7 0 -6 5 -8 10 -5 6 3 10 1 10 -5 0 -7 7 -10 15 -6 8 3 15 1 15 -5 0 -6 5 -7
10 -4 6 3 10 1 10 -6 0 -7 3 -9 7 -6 3 4 12 -1 20 -11 10 -11 12 -12 8 -2 -4
10 -2 9 8 -2 8 -10 16 -15 19 -12 4 3 9 0 14 -7 5 -8 3 -10 -6 -4 -10 6 -12 4
-7 -9 5 -11 3 -15 -5 -10 -8 5 -9 2 -5 -10 5 -11 3 -15 -5 -10 -8 5 -9 2 -5
-10 5 -11 3 -15 -5 -10 -8 5 -9 2 -5 -10 5 -11 3 -15 -5 -10 -8 5 -9 2 -5 -10
5 -11 3 -15 -5 -10 -8 5 -9 2 -5 -10 5 -11 3 -15 -5 -10 -8 5 -9 2 -5 -10 5
-11 3 -15 -5 -10 -8 5 -9 2 -5 -9 8 -22 -2 -22 -20 1 -10 11 -12 12 -8 2 4
-10 2 -9 -8 2 -8 10 -17 15 -20 11 -4 -3 -7 -1 -7 6 0 7 -4 9 -10 6 -5 -3 -10
-2 -10 4 0 6 -7 8 -15 5 -8 -4 -15 -1 -15 6 0 6 -4 9 -9 5 -5 -3 -12 -1 -16 4
-3 6 -12 8 -20 4 -8 -3 -15 -1 -15 3 0 5 -36 9 -80 9 -44 0 -80 -4 -80 -9 0
-4 -7 -6 -15 -2 -8 3 -15 0 -15 -6 0 -6 -3 -9 -6 -5 -3 3 -16 -4 -28 -17 -17
-18 -18 -18 -6 -1 14 19 14 19 -5 3 -14 -13 -19 -32 -19 -73 -1 -47 3 -60 23
-78 13 -12 21 -15 17 -7 -4 8 0 6 8 -4 9 -11 16 -16 16 -11 0 5 5 4 11 -2 6
-6 18 -9 25 -6 8 3 14 0 14 -7 0 -7 8 -9 19 -5 11 3 22 2 25 -4 3 -5 15 -7 26
-4 11 3 20 0 20 -6 0 -7 9 -9 25 -5 16 4 25 2 25 -6 0 -7 8 -9 20 -5 11 4 20
2 20 -4 0 -6 7 -8 15 -5 8 4 15 1 15 -6 0 -7 7 -10 15 -6 8 3 15 1 15 -5 0 -6
5 -7 11 -4 6 4 17 -1 25 -11 9 -11 12 -13 9 -6 -13 24 27 -3 65 -44 19 -21 28
-33 19 -26 -13 9 -12 3 5 -31 13 -26 24 -39 29 -33 4 6 5 -9 2 -34 -3 -34 -2
-39 4 -20 7 19 9 6 9 -50 0 -56 -2 -69 -9 -50 -7 21 -8 18 -4 -13 4 -41 -2
-70 -15 -62 -4 3 -11 -2 -14 -11 -3 -8 -2 -12 4 -9 23 14 7 -8 -42 -57 -28
-28 -48 -45 -44 -37 4 8 -1 3 -12 -10 -11 -13 -24 -21 -31 -17 -6 4 -11 2 -11
-4 0 -6 -4 -8 -10 -5 -5 3 -10 1 -10 -5 0 -7 -7 -10 -15 -6 -8 3 -15 1 -15 -5
0 -6 -7 -8 -16 -5 -9 3 -21 3 -27 -1 -17 -11 -237 -12 -243 -1 -3 5 -14 6 -24
3 -10 -3 -21 -1 -24 4 -4 6 -13 8 -21 4 -8 -3 -15 0 -15 6 0 6 -7 8 -15 5 -8
-4 -15 -1 -15 6 0 6 -4 8 -10 5 -5 -3 -10 -2 -10 4 0 6 -7 7 -17 4 -10 -4 -14
-2 -10 4 4 6 0 14 -9 17 -8 3 -12 2 -9 -4 12 -20 -6 -9 -32 18 -15 15 -23 20
-19 12 4 -8 -2 -4 -14 10 -12 14 -18 19 -14 11 5 -9 3 -12 -4 -7 -9 5 -6 18 8
47 11 21 23 39 26 39 3 0 2 -4 -1 -10 -3 -5 -4 -10 -1 -10 3 0 10 10 17 21 8
16 8 20 -1 14 -7 -4 -5 6 4 24 9 17 24 31 34 31 15 0 15 2 2 10 -9 6 -10 10
-3 10 6 0 26 -15 44 -32 18 -18 30 -27 25 -21 -5 9 -2 11 8 7 9 -3 13 -11 9
-17 -4 -6 0 -8 10 -4 10 3 17 2 17 -4 0 -6 4 -8 9 -4 5 3 12 1 16 -4 3 -6 12
-8 20 -4 8 3 15 0 15 -7 0 -7 8 -9 19 -5 11 3 22 2 25 -3 6 -10 136 -9 153 1
6 4 18 4 27 1 10 -4 16 -1 16 7 0 7 3 9 7 6 3 -4 12 1 20 11 10 11 12 12 8 2
-6 -13 -5 -13 7 0 8 8 20 21 28 29 8 8 10 11 5 8 -7 -4 -9 12 -5 48 3 30 2 51
-2 49 -4 -3 -8 -1 -8 3 0 5 -7 18 -16 29 -8 10 -13 12 -9 4 4 -9 0 -7 -9 4 -8
10 -19 15 -25 12 -5 -4 -12 -2 -16 3 -3 6 -12 8 -19 5 -8 -3 -17 -1 -21 5 -3
6 -17 8 -30 5 -12 -3 -26 -1 -30 5 -3 6 -17 8 -30 5 -12 -3 -26 -1 -30 6 -4 6
-15 8 -26 5 -11 -4 -19 -2 -19 5 0 7 -7 10 -15 7 -8 -4 -17 -2 -20 3 -3 5 -12
7 -20 3 -8 -3 -15 0 -15 7 0 6 -4 8 -10 5 -5 -3 -10 -1 -10 6 0 7 -3 9 -7 6
-3 -4 -12 1 -20 11 -10 11 -12 12 -8 2 4 -8 -1 -6 -10 5 -9 11 -21 19 -26 17
-5 -1 -8 1 -7 5 2 5 -10 20 -25 35 -15 15 -27 33 -27 40 0 9 3 9 11 -2 9 -12
10 -12 5 3 -3 10 -6 24 -6 30 0 9 -2 9 -8 0 -4 -6 -7 35 -7 92 0 57 4 101 9
98 4 -3 5 5 1 17 -4 14 -3 20 2 17 6 -4 15 5 22 19 9 20 8 24 -1 18 -7 -5 10
14 37 41 28 27 53 48 58 47 4 -1 7 3 7 9 0 5 5 7 10 4 6 -3 10 -1 10 5 0 6 5
8 10 5 6 -3 10 -2 10 4 0 6 7 8 15 5 8 -4 15 -1 15 6 0 7 7 10 15 7 8 -4 17
-2 21 4 3 5 14 7 25 4 10 -4 27 -1 36 5 16 9 75 8 148 -2z m-3540 -98 l0 -101
-245 3 -245 3 3 -117 3 -118 200 0 199 0 0 -90 0 -90 -202 0 -203 0 0 -120 0
-121 245 3 245 3 -3 -92 -3 -93 -335 0 -334 0 -2 513 -3 512 -5 -515 -5 -515
-3 511 c-1 281 1 514 5 517 3 4 160 7 347 7 l341 0 0 -100z m438 67 c-1 -15 2
-25 7 -22 11 7 20 -35 14 -65 -4 -18 -3 -21 4 -12 12 18 23 -22 16 -58 -4 -17
-3 -21 4 -12 12 18 23 -22 16 -58 -4 -17 -3 -21 4 -12 12 18 24 -23 16 -58 -5
-21 -4 -22 6 -10 9 12 10 10 5 -13 -4 -19 -2 -26 5 -22 7 4 9 -3 5 -22 -5 -22
-4 -25 5 -13 9 12 10 9 5 -13 -3 -17 -2 -26 4 -23 12 8 23 -37 14 -60 -4 -11
-3 -15 4 -11 14 9 24 -30 17 -63 -4 -17 -3 -21 4 -12 7 11 11 8 15 -10 4 -13
4 -35 2 -48 -3 -14 -2 -19 1 -12 5 10 9 10 21 1 12 -11 13 -8 8 17 -5 23 -4
26 4 14 9 -12 10 -9 5 14 -5 21 -4 27 5 22 9 -6 10 0 6 21 -5 23 -4 25 5 13
10 -12 11 -11 6 10 -8 35 4 76 16 58 7 -9 8 -5 4 12 -7 36 4 76 16 58 7 -9 8
-6 4 12 -8 35 4 76 16 58 7 -9 8 -6 4 12 -8 35 4 76 16 58 7 -9 8 -6 4 12 -7
32 3 72 17 63 7 -4 8 0 4 11 -9 23 2 68 14 60 6 -3 7 6 4 23 -5 22 -4 25 5 13
9 -12 10 -9 5 13 -4 19 -2 26 5 22 7 -4 9 3 5 22 -5 23 -4 25 5 13 10 -12 11
-11 7 8 l-5 23 131 -3 132 -3 0 -515 0 -515 -5 515 -5 515 -3 -512 -2 -513
-85 0 -85 0 0 333 c0 219 -4 337 -11 347 -8 11 -9 8 -4 -13 4 -20 2 -27 -6
-22 -8 5 -9 1 -4 -15 5 -17 4 -21 -6 -15 -9 6 -11 3 -6 -9 4 -10 4 -29 1 -43
-5 -19 -9 -22 -16 -11 -7 9 -8 4 -3 -15 4 -20 2 -27 -6 -22 -8 5 -9 1 -4 -15
5 -17 4 -21 -6 -15 -9 6 -11 3 -6 -9 4 -10 4 -29 1 -43 -5 -19 -9 -22 -16 -11
-7 9 -8 4 -3 -15 4 -20 2 -27 -6 -22 -8 5 -9 1 -4 -15 5 -17 4 -21 -6 -15 -9
6 -11 3 -6 -9 4 -10 4 -29 1 -43 -5 -19 -9 -22 -16 -11 -7 9 -8 4 -3 -15 4
-20 2 -27 -6 -22 -8 5 -9 1 -4 -15 5 -16 4 -20 -5 -15 -9 5 -10 2 -6 -12 3
-11 0 -36 -7 -57 l-13 -38 -91 -1 c-74 -2 -89 1 -85 12 4 10 1 12 -7 6 -10 -6
-11 -2 -6 15 5 16 4 20 -5 15 -9 -5 -10 -1 -5 15 4 13 3 20 -2 17 -13 -8 -45
96 -36 118 5 13 3 16 -6 10 -10 -6 -11 -2 -6 15 5 16 4 20 -4 15 -8 -5 -10 2
-6 22 4 18 3 23 -2 15 -12 -16 -46 89 -36 113 5 13 3 16 -6 10 -10 -6 -11 -2
-6 15 5 16 4 20 -4 15 -8 -5 -10 2 -6 22 5 19 4 24 -3 15 -7 -11 -11 -8 -16
11 -3 14 -3 34 1 44 3 10 2 15 -3 10 -5 -5 -11 -153 -14 -330 l-6 -322 1 358
c0 196 -3 357 -7 357 -5 0 -8 -160 -8 -355 l0 -355 -80 0 -80 0 -2 513 -3 512
-5 -515 -5 -515 -3 511 c-1 281 1 514 5 518 4 3 66 5 137 4 l131 -3 -2 -28z
m1542 -67 l0 -101 -245 3 -245 3 3 -117 3 -118 200 0 199 0 0 -90 0 -90 -202
0 -203 0 0 -120 0 -121 245 3 245 3 -3 -92 -3 -93 -335 0 -334 0 -2 513 -3
512 -5 -515 -5 -515 -3 511 c-1 281 1 514 5 517 3 4 160 7 347 7 l341 0 0
-100z m670 90 c4 -6 15 -8 26 -5 11 4 19 2 19 -5 0 -7 7 -10 15 -6 8 3 15 0
15 -6 0 -6 3 -8 7 -5 3 4 12 -1 20 -11 9 -10 12 -11 7 -2 -4 8 8 -1 27 -21 19
-19 25 -24 14 -10 l-20 26 27 -24 c46 -40 78 -116 73 -170 -4 -37 -3 -40 4
-16 7 23 9 13 9 -45 0 -55 -2 -68 -9 -50 -7 19 -7 15 -4 -18 4 -31 2 -41 -6
-36 -8 4 -9 0 -4 -16 4 -14 3 -20 -2 -17 -6 4 -15 -5 -22 -19 -8 -18 -8 -23 0
-18 8 4 8 1 1 -12 -13 -23 -88 -95 -78 -74 5 9 2 8 -7 -2 -8 -10 -17 -15 -20
-11 -4 3 -7 1 -7 -6 0 -7 -4 -9 -10 -6 -5 3 -10 1 -10 -5 0 -7 -6 -10 -14 -7
-9 4 -13 0 -12 -11 2 -9 8 -18 14 -20 7 -2 17 -13 23 -24 8 -16 8 -19 -1 -13
-9 6 -9 2 -1 -14 7 -11 16 -21 21 -21 5 0 14 -10 21 -21 8 -16 8 -20 -1 -14
-9 6 -9 2 -1 -14 7 -11 14 -21 17 -21 3 0 2 5 -1 10 -3 6 -4 10 -1 10 3 0 13
-14 22 -31 11 -23 12 -29 2 -23 -7 4 -1 -4 15 -19 27 -26 37 -44 16 -31 -8 4
-8 0 0 -15 7 -11 14 -21 17 -21 3 0 2 5 -1 10 -3 6 -4 10 -1 10 3 0 13 -14 22
-31 9 -18 11 -28 4 -24 -9 6 -9 2 -1 -14 7 -11 14 -21 17 -21 3 0 2 5 -1 10
-3 6 -4 10 -1 10 3 0 13 -14 22 -31 11 -23 12 -29 2 -24 -7 3 -4 -1 7 -10 19
-15 12 -16 -107 -14 -103 1 -126 4 -121 15 3 8 -2 17 -11 20 -9 4 -24 20 -32
36 -10 18 -11 27 -4 23 9 -6 9 -2 1 14 -7 11 -14 21 -17 21 -3 0 -2 -4 1 -10
3 -5 4 -10 1 -10 -3 0 -15 18 -27 41 -11 23 -15 38 -9 34 9 -6 9 -2 1 14 -7
11 -14 21 -17 21 -3 0 -2 -4 1 -10 3 -5 4 -10 1 -10 -3 0 -13 14 -22 31 -9 18
-11 28 -4 24 9 -6 9 -2 1 14 -7 11 -16 21 -21 21 -5 0 -17 14 -26 31 -9 18
-11 28 -4 24 9 -6 9 -2 1 14 -12 22 -27 30 -16 9 4 -7 -1 -4 -9 6 -9 11 -16
26 -16 33 0 9 -17 13 -57 13 l-58 0 3 -210 3 -210 -96 0 -95 0 -2 513 -3 512
-5 -515 -5 -515 -3 511 c-1 281 1 514 5 517 11 12 491 8 498 -3z m1770 -24 c8
-19 12 -43 8 -52 -4 -11 -2 -15 4 -11 11 7 28 -22 18 -31 -3 -3 -5 1 -5 8 0 7
-2 11 -5 8 -8 -8 6 -39 15 -33 12 7 30 -52 23 -72 -4 -10 -2 -14 4 -10 14 9
34 -48 26 -70 -4 -10 -2 -14 4 -10 14 9 24 -18 16 -40 -4 -10 -2 -14 4 -10 14
9 34 -48 26 -70 -4 -10 -2 -14 4 -10 11 7 28 -22 18 -31 -3 -3 -5 1 -5 8 0 7
-2 11 -5 8 -8 -8 6 -39 15 -33 12 7 30 -52 23 -72 -4 -10 -2 -14 4 -10 14 9
34 -48 26 -70 -4 -10 -2 -14 4 -10 14 9 24 -18 16 -40 -4 -10 -2 -14 4 -10 14
9 34 -48 26 -70 -4 -10 -2 -14 4 -10 11 7 28 -22 18 -31 -3 -3 -5 1 -5 8 0 7
-2 11 -5 8 -8 -8 6 -39 15 -33 12 7 30 -52 23 -72 -4 -10 -2 -14 4 -10 14 9
34 -48 26 -70 -4 -10 -2 -14 4 -10 12 8 26 -20 17 -34 -3 -6 -52 -9 -109 -8
l-104 1 -15 46 c-9 25 -14 48 -11 50 3 3 5 -1 5 -8 0 -7 2 -11 5 -8 9 9 -7 38
-17 32 -6 -4 -7 2 -3 16 5 17 4 21 -6 15 -9 -6 -11 -3 -6 8 6 16 -11 17 -187
17 -171 0 -195 -2 -200 -16 -4 -9 -4 -19 -1 -22 3 -3 5 1 5 8 0 7 2 11 5 8 9
-9 -27 -98 -37 -92 -6 4 -8 -2 -3 -16 5 -17 4 -21 -6 -15 -9 6 -11 3 -6 -8 6
-15 -5 -17 -103 -17 -71 0 -110 4 -110 11 0 5 5 7 12 3 8 -5 9 -2 5 9 -8 22 2
49 16 40 6 -4 8 0 4 10 -8 22 12 79 26 70 6 -4 8 0 4 10 -7 20 11 79 23 72 9
-6 23 25 15 33 -3 3 -5 -1 -5 -8 0 -7 -2 -11 -5 -8 -10 9 7 38 18 31 6 -4 8 0
4 10 -8 22 12 79 26 70 6 -4 8 0 4 10 -8 22 2 49 16 40 6 -4 8 0 4 10 -8 22
12 79 26 70 6 -4 8 0 4 10 -7 20 11 79 23 72 9 -6 23 25 15 33 -3 3 -5 -1 -5
-8 0 -7 -2 -11 -5 -8 -10 9 7 38 18 31 6 -4 8 0 4 10 -8 22 12 79 26 70 6 -4
8 0 4 10 -8 22 2 49 16 40 6 -4 8 0 4 10 -8 22 12 79 26 70 6 -4 8 0 4 10 -7
20 11 79 23 72 9 -6 23 25 15 33 -3 3 -5 -1 -5 -8 0 -7 -2 -11 -5 -8 -10 9 7
38 18 31 6 -4 8 0 4 10 -4 10 -2 28 3 42 9 23 14 25 75 25 66 0 66 0 80 -34z
m-1235 -39 c0 -2 -12 -14 -27 -28 l-28 -24 24 28 c23 25 31 32 31 24z m-103
-274 c-2 -21 -4 -6 -4 32 0 39 2 55 4 38 2 -18 2 -50 0 -70z m-3150 -225 c-2
-29 -3 -8 -3 47 0 55 1 79 3 53 2 -26 2 -71 0 -100z m1980 0 c-2 -29 -3 -8 -3
47 0 55 1 79 3 53 2 -26 2 -71 0 -100z m1881 -33 c-3 -3 -9 2 -12 12 -6 14 -5
15 5 6 7 -7 10 -15 7 -18z m-48 -329 c0 -2 -8 -10 -17 -17 -16 -13 -17 -12 -4
4 13 16 21 21 21 13z"/>
<path d="M10672 4425 c0 -16 2 -22 5 -12 2 9 2 23 0 30 -3 6 -5 -1 -5 -18z"/>
<path d="M11023 3985 c0 -22 2 -30 4 -17 2 12 2 30 0 40 -3 9 -5 -1 -4 -23z"/>
<path d="M8290 4399 c0 -5 5 -7 10 -4 6 3 10 8 10 11 0 2 -4 4 -10 4 -5 0 -10
-5 -10 -11z"/>
<path d="M8020 4030 c0 -5 5 -10 11 -10 5 0 7 5 4 10 -3 6 -8 10 -11 10 -2 0
-4 -4 -4 -10z"/>
<path d="M9893 4522 l-132 -3 -3 -119 -3 -120 133 0 c90 0 132 4 132 11 0 6 6
9 14 6 18 -7 45 23 38 42 -2 8 0 11 6 7 6 -4 8 2 5 16 -3 15 -2 19 4 10 6 -8
9 6 10 39 0 36 -2 47 -9 38 -7 -10 -8 -8 -5 9 3 12 1 20 -4 16 -8 -5 -13 10
-10 29 1 5 -3 6 -9 2 -5 -3 -10 -1 -10 5 0 6 -4 9 -9 6 -5 -4 -11 -3 -13 1 -1
5 -62 7 -135 5z m177 -196 c0 -2 -8 -10 -17 -17 -16 -13 -17 -12 -4 4 13 16
21 21 21 13z"/>
<path d="M11735 4380 c-3 -5 -3 -15 0 -20 9 -15 -5 -51 -17 -44 -6 4 -8 -1 -3
-16 5 -16 4 -20 -5 -15 -9 5 -10 1 -5 -15 5 -17 4 -21 -6 -15 -9 6 -11 4 -6
-8 8 -22 -22 -109 -35 -101 -6 4 -8 -2 -3 -16 5 -16 4 -20 -5 -15 -9 5 -10 1
-5 -15 5 -16 4 -20 -5 -15 -9 5 -10 1 -5 -15 5 -15 4 -20 -4 -16 -6 4 -11 2
-11 -4 0 -17 242 -9 248 9 3 9 0 11 -8 6 -9 -5 -10 -2 -5 15 5 14 3 20 -3 16
-13 -8 -43 79 -35 101 5 12 3 14 -6 8 -10 -6 -11 -2 -6 15 5 16 4 20 -5 15 -9
-5 -10 -1 -5 15 5 14 3 20 -3 16 -6 -3 -17 13 -25 36 -8 24 -18 52 -23 62 -6
15 -4 17 6 11 9 -5 11 -4 6 3 -9 15 -13 15 -21 2z"/>
<path d="M17970 3975 l0 -1885 5315 0 5315 0 0 1885 0 1885 -5315 0 -5315 0 0
-1885z m2806 1101 c8 -8 14 -19 14 -24 0 -5 19 -27 43 -48 23 -22 55 -55 70
-75 l27 -36 0 -662 c0 -561 -2 -665 -14 -677 -19 -19 -375 -21 -394 -2 -7 7
-12 43 -12 94 l0 81 50 6 c72 9 124 47 213 156 13 17 17 41 17 117 0 107 -15
150 -71 200 -18 16 -43 40 -57 52 -17 16 -46 27 -89 34 l-64 11 3 163 c3 156
2 162 -15 143 -10 -10 -26 -19 -36 -19 -10 0 -38 -15 -62 -32 -24 -18 -71 -46
-104 -63 -33 -16 -62 -33 -65 -36 -3 -3 -20 -11 -37 -18 -18 -8 -33 -18 -33
-23 0 -5 -20 -18 -45 -29 -24 -11 -57 -30 -73 -44 -15 -13 -48 -31 -73 -41
-24 -9 -52 -25 -62 -36 -10 -10 -30 -21 -45 -24 -15 -4 -29 -10 -32 -13 -10
-12 -69 -51 -77 -51 -5 0 -33 -16 -63 -36 -30 -20 -72 -42 -92 -50 -20 -7 -46
-22 -57 -33 -12 -12 -28 -21 -36 -21 -8 0 -15 -4 -15 -8 0 -5 -18 -17 -40 -27
-22 -10 -40 -22 -40 -26 0 -4 -7 -9 -16 -11 -21 -4 41 -68 66 -68 10 0 23 -7
30 -15 6 -8 37 -31 68 -51 32 -21 59 -41 63 -46 12 -18 114 -88 128 -88 9 0
29 -13 44 -29 15 -17 48 -40 72 -52 25 -12 47 -31 51 -41 3 -10 12 -18 20 -18
8 0 25 -9 37 -21 12 -11 38 -29 57 -40 39 -21 158 -106 183 -129 8 -8 39 -28
67 -45 29 -16 74 -47 101 -67 26 -21 51 -38 54 -38 7 0 26 -15 61 -47 14 -13
29 -23 34 -23 4 0 10 -4 12 -8 2 -5 29 -23 61 -41 31 -18 57 -36 57 -41 0 -4
19 -18 43 -29 49 -25 87 -55 87 -69 0 -5 11 -13 25 -16 23 -6 25 -11 25 -61 0
-47 -3 -57 -25 -71 -14 -9 -25 -25 -25 -35 0 -11 -3 -19 -8 -19 -13 0 -113
-97 -126 -121 -10 -21 -20 -24 -74 -27 -50 -2 -66 1 -83 17 -12 11 -35 25 -53
32 -17 7 -40 21 -50 31 -11 10 -29 21 -40 24 -12 4 -23 9 -26 13 -3 3 -16 12
-30 20 -67 39 -137 83 -156 99 -23 19 -59 40 -154 90 -36 18 -73 42 -82 52
-10 11 -38 28 -62 38 -24 11 -53 29 -64 40 -10 10 -42 29 -71 42 -28 13 -51
27 -51 32 0 4 -6 8 -13 8 -7 0 -22 8 -33 19 -11 10 -30 22 -42 25 -12 4 -22
12 -22 17 0 5 -6 9 -12 9 -7 0 -26 12 -43 26 -16 14 -58 39 -92 55 -35 16 -63
33 -63 39 0 5 -11 12 -25 16 -14 3 -25 9 -25 13 0 3 -21 18 -47 31 -26 14 -66
39 -90 57 -23 17 -56 34 -73 38 -16 4 -36 15 -43 25 -7 10 -33 27 -58 39 -26
12 -57 33 -69 47 -13 13 -31 24 -39 24 -9 0 -36 16 -60 35 -24 19 -49 35 -55
35 -6 0 -34 15 -62 33 -28 17 -59 37 -70 43 -27 16 -28 140 -2 155 9 5 24 16
32 24 8 8 20 15 26 15 17 0 69 29 91 51 10 10 26 19 34 19 8 0 15 3 15 8 0 4
10 12 23 18 36 17 161 85 172 94 6 4 33 20 60 35 28 16 73 43 101 61 28 19 55
34 60 34 14 0 248 140 252 151 2 5 12 9 22 9 9 0 23 7 30 15 6 8 22 17 33 21
25 7 135 73 155 91 7 7 22 13 32 13 11 0 23 6 27 14 4 7 62 42 128 76 66 34
125 69 131 76 6 8 29 21 50 30 21 9 48 24 59 34 19 16 41 28 138 76 20 10 37
21 37 24 0 3 15 11 34 18 18 7 41 21 51 32 10 11 28 20 39 20 12 0 44 15 71
34 28 18 69 37 93 41 23 4 42 11 42 16 0 15 100 11 116 -5z m5059 -408 c11 -2
26 -7 33 -11 6 -5 16 -6 21 -2 5 3 12 1 16 -4 3 -6 12 -8 20 -4 8 3 15 0 15
-7 0 -6 5 -8 10 -5 6 3 10 1 10 -5 0 -7 7 -10 15 -6 8 3 15 1 15 -5 0 -6 5 -7
10 -4 6 3 10 1 10 -6 0 -7 3 -9 7 -6 3 4 12 -1 20 -11 10 -11 12 -12 8 -2 -4
10 -2 9 8 -2 8 -10 16 -15 19 -12 4 3 9 0 14 -7 5 -8 3 -10 -6 -4 -10 6 -12 4
-7 -9 5 -11 3 -15 -5 -10 -8 5 -9 2 -5 -10 5 -11 3 -15 -5 -10 -8 5 -9 2 -5
-10 5 -11 3 -15 -5 -10 -8 5 -9 2 -5 -10 5 -11 3 -15 -5 -10 -8 5 -9 2 -5 -10
5 -11 3 -15 -5 -10 -8 5 -9 2 -5 -10 5 -11 3 -15 -5 -10 -8 5 -9 2 -5 -10 5
-11 3 -15 -5 -10 -8 5 -9 2 -5 -9 8 -22 -2 -22 -20 1 -10 11 -12 12 -8 2 4
-10 2 -9 -8 2 -8 10 -17 15 -20 11 -4 -3 -7 -1 -7 6 0 7 -4 9 -10 6 -5 -3 -10
-2 -10 4 0 6 -7 8 -15 5 -8 -4 -15 -1 -15 6 0 6 -4 9 -9 5 -5 -3 -12 -1 -16 4
-3 6 -12 8 -20 4 -8 -3 -15 -1 -15 3 0 5 -36 9 -80 9 -44 0 -80 -4 -80 -9 0
-4 -7 -6 -15 -2 -8 3 -15 0 -15 -6 0 -6 -3 -9 -6 -5 -3 3 -16 -4 -28 -17 -17
-18 -18 -18 -6 -1 14 19 14 19 -5 3 -14 -13 -19 -32 -19 -73 -1 -47 3 -60 23
-78 13 -12 21 -15 17 -7 -4 8 0 6 8 -4 9 -11 16 -16 16 -11 0 5 5 4 11 -2 6
-6 18 -9 25 -6 8 3 14 0 14 -7 0 -7 8 -9 19 -5 11 3 22 2 25 -4 3 -5 15 -7 26
-4 11 3 20 0 20 -6 0 -7 9 -9 25 -5 16 4 25 2 25 -6 0 -7 8 -9 20 -5 11 4 20
2 20 -4 0 -6 7 -8 15 -5 8 4 15 1 15 -6 0 -7 7 -10 15 -6 8 3 15 1 15 -5 0 -6
5 -7 11 -4 6 4 17 -1 25 -11 9 -11 12 -13 9 -6 -13 24 27 -3 65 -44 19 -21 28
-33 19 -26 -13 9 -12 3 5 -31 13 -26 24 -39 29 -33 4 6 5 -9 2 -34 -3 -34 -2
-39 4 -20 7 19 9 6 9 -50 0 -56 -2 -69 -9 -50 -7 21 -8 18 -4 -13 4 -41 -2
-70 -15 -62 -4 3 -11 -2 -14 -11 -3 -8 -2 -12 4 -9 23 14 7 -8 -42 -57 -28
-28 -48 -45 -44 -37 4 8 -1 3 -12 -10 -11 -13 -24 -21 -31 -17 -6 4 -11 2 -11
-4 0 -6 -4 -8 -10 -5 -5 3 -10 1 -10 -5 0 -7 -7 -10 -15 -6 -8 3 -15 1 -15 -5
0 -6 -7 -8 -16 -5 -9 3 -21 3 -27 -1 -17 -11 -237 -12 -243 -1 -3 5 -14 6 -24
3 -10 -3 -21 -1 -24 4 -4 6 -13 8 -21 4 -8 -3 -15 0 -15 6 0 6 -7 8 -15 5 -8
-4 -15 -1 -15 6 0 6 -4 8 -10 5 -5 -3 -10 -2 -10 4 0 6 -7 7 -17 4 -10 -4 -14
-2 -10 4 4 6 0 14 -9 17 -8 3 -12 2 -9 -4 12 -20 -6 -9 -32 18 -15 15 -23 20
-19 12 4 -8 -2 -4 -14 10 -12 14 -18 19 -14 11 5 -9 3 -12 -4 -7 -9 5 -6 18 8
47 11 21 23 39 26 39 3 0 2 -4 -1 -10 -3 -5 -4 -10 -1 -10 3 0 10 10 17 21 8
16 8 20 -1 14 -7 -4 -5 6 4 24 9 17 24 31 34 31 15 0 15 2 2 10 -9 6 -10 10
-3 10 6 0 26 -15 44 -32 18 -18 30 -27 25 -21 -5 9 -2 11 8 7 9 -3 13 -11 9
-17 -4 -6 0 -8 10 -4 10 3 17 2 17 -4 0 -6 4 -8 9 -4 5 3 12 1 16 -4 3 -6 12
-8 20 -4 8 3 15 0 15 -7 0 -7 8 -9 19 -5 11 3 22 2 25 -3 6 -10 136 -9 153 1
6 4 18 4 27 1 10 -4 16 -1 16 7 0 7 3 9 7 6 3 -4 12 1 20 11 10 11 12 12 8 2
-6 -13 -5 -13 7 0 8 8 20 21 28 29 8 8 10 11 5 8 -7 -4 -9 12 -5 48 3 30 2 51
-2 49 -4 -3 -8 -1 -8 3 0 5 -7 18 -16 29 -8 10 -13 12 -9 4 4 -9 0 -7 -9 4 -8
10 -19 15 -25 12 -5 -4 -12 -2 -16 3 -3 6 -12 8 -19 5 -8 -3 -17 -1 -21 5 -3
6 -17 8 -30 5 -12 -3 -26 -1 -30 5 -3 6 -17 8 -30 5 -12 -3 -26 -1 -30 6 -4 6
-15 8 -26 5 -11 -4 -19 -2 -19 5 0 7 -7 10 -15 7 -8 -4 -17 -2 -20 3 -3 5 -12
7 -20 3 -8 -3 -15 0 -15 7 0 6 -4 8 -10 5 -5 -3 -10 -1 -10 6 0 7 -3 9 -7 6
-3 -4 -12 1 -20 11 -10 11 -12 12 -8 2 4 -8 -1 -6 -10 5 -9 11 -21 19 -26 17
-5 -1 -8 1 -7 5 2 5 -10 20 -25 35 -15 15 -27 33 -27 40 0 9 3 9 11 -2 9 -12
10 -12 5 3 -3 10 -6 24 -6 30 0 9 -2 9 -8 0 -4 -6 -7 35 -7 92 0 57 4 101 9
98 4 -3 5 5 1 17 -4 14 -3 20 2 17 6 -4 15 5 22 19 9 20 8 24 -1 18 -7 -5 10
14 37 41 28 27 53 48 58 47 4 -1 7 3 7 9 0 5 5 7 10 4 6 -3 10 -1 10 5 0 6 5
8 10 5 6 -3 10 -2 10 4 0 6 7 8 15 5 8 -4 15 -1 15 6 0 7 7 10 15 7 8 -4 17
-2 21 4 3 5 14 7 25 4 10 -4 27 -1 36 5 16 9 75 8 148 -2z m-3540 -98 l0 -101
-245 3 -245 3 3 -117 3 -118 200 0 199 0 0 -90 0 -90 -202 0 -203 0 0 -120 0
-121 245 3 245 3 -3 -92 -3 -93 -335 0 -334 0 -2 513 -3 512 -5 -515 -5 -515
-3 511 c-1 281 1 514 5 517 3 4 160 7 347 7 l341 0 0 -100z m438 67 c-1 -15 2
-25 7 -22 11 7 20 -35 14 -65 -4 -18 -3 -21 4 -12 12 18 23 -22 16 -58 -4 -17
-3 -21 4 -12 12 18 23 -22 16 -58 -4 -17 -3 -21 4 -12 12 18 24 -23 16 -58 -5
-21 -4 -22 6 -10 9 12 10 10 5 -13 -4 -19 -2 -26 5 -22 7 4 9 -3 5 -22 -5 -22
-4 -25 5 -13 9 12 10 9 5 -13 -3 -17 -2 -26 4 -23 12 8 23 -37 14 -60 -4 -11
-3 -15 4 -11 14 9 24 -30 17 -63 -4 -17 -3 -21 4 -12 7 11 11 8 15 -10 4 -13
4 -35 2 -48 -3 -14 -2 -19 1 -12 5 10 9 10 21 1 12 -11 13 -8 8 17 -5 23 -4
26 4 14 9 -12 10 -9 5 14 -5 21 -4 27 5 22 9 -6 10 0 6 21 -5 23 -4 25 5 13
10 -12 11 -11 6 10 -8 35 4 76 16 58 7 -9 8 -5 4 12 -7 36 4 76 16 58 7 -9 8
-6 4 12 -8 35 4 76 16 58 7 -9 8 -6 4 12 -8 35 4 76 16 58 7 -9 8 -6 4 12 -7
32 3 72 17 63 7 -4 8 0 4 11 -9 23 2 68 14 60 6 -3 7 6 4 23 -5 22 -4 25 5 13
9 -12 10 -9 5 13 -4 19 -2 26 5 22 7 -4 9 3 5 22 -5 23 -4 25 5 13 10 -12 11
-11 7 8 l-5 23 131 -3 132 -3 0 -515 0 -515 -5 515 -5 515 -3 -512 -2 -513
-85 0 -85 0 0 333 c0 219 -4 337 -11 347 -8 11 -9 8 -4 -13 4 -20 2 -27 -6
-22 -8 5 -9 1 -4 -15 5 -17 4 -21 -6 -15 -9 6 -11 3 -6 -9 4 -10 4 -29 1 -43
-5 -19 -9 -22 -16 -11 -7 9 -8 4 -3 -15 4 -20 2 -27 -6 -22 -8 5 -9 1 -4 -15
5 -17 4 -21 -6 -15 -9 6 -11 3 -6 -9 4 -10 4 -29 1 -43 -5 -19 -9 -22 -16 -11
-7 9 -8 4 -3 -15 4 -20 2 -27 -6 -22 -8 5 -9 1 -4 -15 5 -17 4 -21 -6 -15 -9
6 -11 3 -6 -9 4 -10 4 -29 1 -43 -5 -19 -9 -22 -16 -11 -7 9 -8 4 -3 -15 4
-20 2 -27 -6 -22 -8 5 -9 1 -4 -15 5 -16 4 -20 -5 -15 -9 5 -10 2 -6 -12 3
-11 0 -36 -7 -57 l-13 -38 -91 -1 c-74 -2 -89 1 -85 12 4 10 1 12 -7 6 -10 -6
-11 -2 -6 15 5 16 4 20 -5 15 -9 -5 -10 -1 -5 15 4 13 3 20 -2 17 -13 -8 -45
96 -36 118 5 13 3 16 -6 10 -10 -6 -11 -2 -6 15 5 16 4 20 -4 15 -8 -5 -10 2
-6 22 4 18 3 23 -2 15 -12 -16 -46 89 -36 113 5 13 3 16 -6 10 -10 -6 -11 -2
-6 15 5 16 4 20 -4 15 -8 -5 -10 2 -6 22 5 19 4 24 -3 15 -7 -11 -11 -8 -16
11 -3 14 -3 34 1 44 3 10 2 15 -3 10 -5 -5 -11 -153 -14 -330 l-6 -322 1 358
c0 196 -3 357 -7 357 -5 0 -8 -160 -8 -355 l0 -355 -80 0 -80 0 -2 513 -3 512
-5 -515 -5 -515 -3 511 c-1 281 1 514 5 518 4 3 66 5 137 4 l131 -3 -2 -28z
m1542 -67 l0 -101 -245 3 -245 3 3 -117 3 -118 200 0 199 0 0 -90 0 -90 -202
0 -203 0 0 -120 0 -121 245 3 245 3 -3 -92 -3 -93 -345 0 -344 0 0 508 c0 280
3 512 7 515 3 4 160 7 347 7 l341 0 0 -100z m670 90 c4 -6 15 -8 26 -5 11 4
19 2 19 -5 0 -7 7 -10 15 -6 8 3 15 0 15 -6 0 -6 3 -8 7 -5 3 4 12 -1 20 -11
9 -10 12 -11 7 -2 -4 8 8 -1 27 -21 19 -19 25 -24 14 -10 l-20 26 27 -24 c46
-40 78 -116 73 -170 -4 -37 -3 -40 4 -16 7 23 9 13 9 -45 0 -55 -2 -68 -9 -50
-7 19 -7 15 -4 -18 4 -31 2 -41 -6 -36 -8 4 -9 0 -4 -16 4 -14 3 -20 -2 -17
-6 4 -15 -5 -22 -19 -8 -18 -8 -23 0 -18 8 4 8 1 1 -12 -13 -23 -88 -95 -78
-74 5 9 2 8 -7 -2 -8 -10 -17 -15 -20 -11 -4 3 -7 1 -7 -6 0 -7 -4 -9 -10 -6
-5 3 -10 1 -10 -5 0 -7 -6 -10 -14 -7 -9 4 -13 0 -12 -11 2 -9 8 -18 14 -20 7
-2 17 -13 23 -24 8 -16 8 -19 -1 -13 -9 6 -9 2 -1 -14 7 -11 16 -21 21 -21 5
0 14 -10 21 -21 8 -16 8 -20 -1 -14 -9 6 -9 2 -1 -14 7 -11 14 -21 17 -21 3 0
2 5 -1 10 -3 6 -4 10 -1 10 3 0 13 -14 22 -31 11 -23 12 -29 2 -23 -7 4 -1 -4
15 -19 27 -26 37 -44 16 -31 -8 4 -8 0 0 -15 7 -11 14 -21 17 -21 3 0 2 5 -1
10 -3 6 -4 10 -1 10 3 0 13 -14 22 -31 9 -18 11 -28 4 -24 -9 6 -9 2 -1 -14 7
-11 14 -21 17 -21 3 0 2 5 -1 10 -3 6 -4 10 -1 10 3 0 13 -14 22 -31 11 -23
12 -29 2 -24 -7 3 -4 -1 7 -10 19 -15 12 -16 -107 -14 -103 1 -126 4 -121 15
3 8 -2 17 -11 20 -9 4 -24 20 -32 36 -10 18 -11 27 -4 23 9 -6 9 -2 1 14 -7
11 -14 21 -17 21 -3 0 -2 -4 1 -10 3 -5 4 -10 1 -10 -3 0 -15 18 -27 41 -11
23 -15 38 -9 34 9 -6 9 -2 1 14 -7 11 -14 21 -17 21 -3 0 -2 -4 1 -10 3 -5 4
-10 1 -10 -3 0 -13 14 -22 31 -9 18 -11 28 -4 24 9 -6 9 -2 1 14 -7 11 -16 21
-21 21 -5 0 -17 14 -26 31 -9 18 -11 28 -4 24 9 -6 9 -2 1 14 -12 22 -27 30
-16 9 4 -7 -1 -4 -9 6 -9 11 -16 26 -16 33 0 9 -17 13 -57 13 l-58 0 3 -210 3
-210 -96 0 -95 0 -2 513 -3 512 -5 -515 -5 -515 -3 511 c-1 281 1 514 5 517
11 12 491 8 498 -3z m1770 -24 c8 -19 12 -43 8 -52 -4 -11 -2 -15 4 -11 11 7
28 -22 18 -31 -3 -3 -5 1 -5 8 0 7 -2 11 -5 8 -8 -8 6 -39 15 -33 12 7 30 -52
23 -72 -4 -10 -2 -14 4 -10 14 9 34 -48 26 -70 -4 -10 -2 -14 4 -10 14 9 24
-18 16 -40 -4 -10 -2 -14 4 -10 14 9 34 -48 26 -70 -4 -10 -2 -14 4 -10 11 7
28 -22 18 -31 -3 -3 -5 1 -5 8 0 7 -2 11 -5 8 -8 -8 6 -39 15 -33 12 7 30 -52
23 -72 -4 -10 -2 -14 4 -10 14 9 34 -48 26 -70 -4 -10 -2 -14 4 -10 14 9 24
-18 16 -40 -4 -10 -2 -14 4 -10 14 9 34 -48 26 -70 -4 -10 -2 -14 4 -10 11 7
28 -22 18 -31 -3 -3 -5 1 -5 8 0 7 -2 11 -5 8 -8 -8 6 -39 15 -33 12 7 30 -52
23 -72 -4 -10 -2 -14 4 -10 14 9 34 -48 26 -70 -4 -10 -2 -14 4 -10 12 8 26
-20 17 -34 -3 -6 -52 -9 -109 -8 l-104 1 -15 46 c-9 25 -14 48 -11 50 3 3 5
-1 5 -8 0 -7 2 -11 5 -8 9 9 -7 38 -17 32 -6 -4 -7 2 -3 16 5 17 4 21 -6 15
-9 -6 -11 -3 -6 8 6 16 -11 17 -187 17 -171 0 -195 -2 -200 -16 -4 -9 -4 -19
-1 -22 3 -3 5 1 5 8 0 7 2 11 5 8 9 -9 -27 -98 -37 -92 -6 4 -8 -2 -3 -16 5
-17 4 -21 -6 -15 -9 6 -11 3 -6 -8 6 -15 -5 -17 -103 -17 -71 0 -110 4 -110
11 0 5 5 7 12 3 8 -5 9 -2 5 9 -8 22 2 49 16 40 6 -4 8 0 4 10 -8 22 12 79 26
70 6 -4 8 0 4 10 -7 20 11 79 23 72 9 -6 23 25 15 33 -3 3 -5 -1 -5 -8 0 -7
-2 -11 -5 -8 -10 9 7 38 18 31 6 -4 8 0 4 10 -8 22 12 79 26 70 6 -4 8 0 4 10
-8 22 2 49 16 40 6 -4 8 0 4 10 -8 22 12 79 26 70 6 -4 8 0 4 10 -7 20 11 79
23 72 9 -6 23 25 15 33 -3 3 -5 -1 -5 -8 0 -7 -2 -11 -5 -8 -10 9 7 38 18 31
6 -4 8 0 4 10 -8 22 12 79 26 70 6 -4 8 0 4 10 -8 22 2 49 16 40 6 -4 8 0 4
10 -8 22 12 79 26 70 6 -4 8 0 4 10 -7 20 11 79 23 72 9 -6 23 25 15 33 -3 3
-5 -1 -5 -8 0 -7 -2 -11 -5 -8 -10 9 7 38 18 31 6 -4 8 0 4 10 -4 10 -2 28 3
42 9 23 14 25 75 25 66 0 66 0 80 -34z m-1235 -39 c0 -2 -12 -14 -27 -28 l-28
-24 24 28 c23 25 31 32 31 24z m-103 -274 c-2 -21 -4 -6 -4 32 0 39 2 55 4 38
2 -18 2 -50 0 -70z m-3150 -225 c-2 -29 -3 -8 -3 47 0 55 1 79 3 53 2 -26 2
-71 0 -100z m1980 0 c-2 -29 -3 -8 -3 47 0 55 1 79 3 53 2 -26 2 -71 0 -100z
m1881 -33 c-3 -3 -9 2 -12 12 -6 14 -5 15 5 6 7 -7 10 -15 7 -18z m-48 -329
c0 -2 -8 -10 -17 -17 -16 -13 -17 -12 -4 4 13 16 21 21 21 13z"/>
<path d="M25562 4375 c0 -16 2 -22 5 -12 2 9 2 23 0 30 -3 6 -5 -1 -5 -18z"/>
<path d="M25913 3935 c0 -22 2 -30 4 -17 2 12 2 30 0 40 -3 9 -5 -1 -4 -23z"/>
<path d="M23180 4349 c0 -5 5 -7 10 -4 6 3 10 8 10 11 0 2 -4 4 -10 4 -5 0
-10 -5 -10 -11z"/>
<path d="M22910 3980 c0 -5 5 -10 11 -10 5 0 7 5 4 10 -3 6 -8 10 -11 10 -2 0
-4 -4 -4 -10z"/>
<path d="M24783 4472 l-132 -3 -3 -119 -3 -120 133 0 c90 0 132 4 132 11 0 6
6 9 14 6 18 -7 45 23 38 42 -2 8 0 11 6 7 6 -4 8 2 5 16 -3 15 -2 19 4 10 6
-8 9 6 10 39 0 36 -2 47 -9 38 -7 -10 -8 -8 -5 9 3 12 1 20 -4 16 -8 -5 -13
10 -10 29 1 5 -3 6 -9 2 -5 -3 -10 -1 -10 5 0 6 -4 9 -9 6 -5 -4 -11 -3 -13 1
-1 5 -62 7 -135 5z m177 -196 c0 -2 -8 -10 -17 -17 -16 -13 -17 -12 -4 4 13
16 21 21 21 13z"/>
<path d="M26625 4330 c-3 -5 -3 -15 0 -20 9 -15 -5 -51 -17 -44 -6 4 -8 -1 -3
-16 5 -16 4 -20 -5 -15 -9 5 -10 1 -5 -15 5 -17 4 -21 -6 -15 -9 6 -11 4 -6
-8 8 -22 -22 -109 -35 -101 -6 4 -8 -2 -3 -16 5 -16 4 -20 -5 -15 -9 5 -10 1
-5 -15 5 -16 4 -20 -5 -15 -9 5 -10 1 -5 -15 5 -15 4 -20 -4 -16 -6 4 -11 2
-11 -4 0 -17 242 -9 248 9 3 9 0 11 -8 6 -9 -5 -10 -2 -5 15 5 14 3 20 -3 16
-13 -8 -43 79 -35 101 5 12 3 14 -6 8 -10 -6 -11 -2 -6 15 5 16 4 20 -5 15 -9
-5 -10 -1 -5 15 5 14 3 20 -3 16 -6 -3 -17 13 -25 36 -8 24 -18 52 -23 62 -6
15 -4 17 6 11 9 -5 11 -4 6 3 -9 15 -13 15 -21 2z"/>
</g>
</svg>
