<?xml version="1.0" standalone="no"?>
<!DOCTYPE svg PUBLIC "-//W3C//DTD SVG 20010904//EN"
 "http://www.w3.org/TR/2001/REC-SVG-20010904/DTD/svg10.dtd">
<svg version="1.0" xmlns="http://www.w3.org/2000/svg"
 width="6000.000000pt" height="2000.000000pt" viewBox="0 0 6000.000000 2000.000000"
 preserveAspectRatio="xMidYMid meet">

<g transform="translate(0.000000,2000.000000) scale(0.100000,-0.100000)"
fill="#000000" stroke="none">
<path d="M14605 16083 c-84 -6 -153 -23 -159 -39 -9 -22 -79 -50 -187 -73
-168 -36 -332 -104 -499 -206 -174 -106 -252 -140 -403 -174 -52 -12 -86 -33
-191 -115 -73 -57 -140 -94 -270 -147 -44 -18 -96 -47 -116 -65 -50 -46 -125
-87 -393 -214 -267 -128 -378 -188 -497 -274 -82 -59 -119 -79 -370 -199 -63
-31 -139 -75 -168 -100 -75 -62 -257 -165 -632 -357 -464 -238 -589 -310 -671
-386 -47 -43 -85 -58 -169 -69 -49 -6 -63 -14 -231 -126 -201 -135 -492 -293
-703 -383 -38 -17 -92 -50 -120 -74 -57 -51 -117 -81 -163 -82 -44 0 -83 -16
-118 -49 -43 -40 -152 -111 -365 -238 -371 -220 -792 -450 -865 -473 -63 -20
-163 -73 -317 -168 -79 -49 -233 -140 -343 -202 -110 -62 -267 -151 -350 -198
-82 -47 -197 -112 -255 -145 -58 -33 -251 -134 -430 -225 -395 -200 -377 -190
-399 -228 -15 -25 -27 -32 -65 -37 -62 -9 -107 -33 -197 -108 -131 -109 -308
-203 -429 -228 -36 -8 -72 -25 -103 -49 -27 -20 -85 -64 -130 -98 -52 -38 -88
-73 -99 -95 -59 -125 -48 -459 20 -599 l27 -55 220 -128 c231 -134 446 -247
471 -247 33 0 117 -50 327 -193 114 -78 212 -129 281 -146 61 -15 121 -49 183
-105 92 -82 170 -132 338 -217 206 -104 245 -128 310 -189 61 -57 122 -93 195
-115 163 -50 273 -103 440 -213 138 -90 304 -186 479 -276 71 -37 154 -89 184
-115 37 -32 71 -52 103 -60 84 -21 144 -52 159 -82 20 -37 104 -86 308 -181
218 -100 367 -182 487 -268 102 -73 186 -120 217 -120 24 0 63 -27 63 -45 0
-22 62 -64 129 -86 56 -19 119 -57 255 -153 29 -20 72 -40 102 -46 42 -9 58
-18 79 -46 21 -27 63 -52 183 -110 283 -135 338 -165 423 -228 113 -83 209
-139 354 -203 138 -62 242 -121 295 -169 69 -63 216 -146 572 -325 394 -197
514 -263 633 -349 104 -75 378 -238 635 -380 113 -62 241 -136 285 -165 44
-29 113 -64 154 -79 86 -30 130 -55 226 -126 39 -29 122 -77 185 -107 188 -88
220 -106 298 -161 99 -70 117 -79 198 -93 76 -13 332 -7 444 12 86 14 117 33
163 103 50 75 147 176 313 327 152 139 276 237 310 245 24 6 44 48 44 93 0 37
43 99 97 141 140 108 136 100 141 315 6 255 -8 296 -113 325 -30 9 -52 22 -63
39 -16 27 -133 146 -187 191 -16 14 -64 55 -106 92 -77 67 -132 101 -379 237
-19 10 -75 49 -125 86 -122 92 -324 225 -340 225 -5 0 -138 82 -170 104 -32
23 -61 41 -85 52 -12 7 -142 95 -240 164 -19 14 -66 50 -105 80 -38 31 -106
78 -150 105 -44 27 -188 122 -320 210 -132 88 -271 179 -310 201 -372 220
-377 223 -643 413 -236 169 -447 308 -709 465 -89 54 -197 122 -240 151 -43
30 -127 82 -188 117 -60 34 -141 90 -180 123 -105 91 -164 133 -345 247 -91
57 -206 135 -255 174 -97 76 -154 112 -255 164 -118 60 -294 162 -385 223 -84
56 -254 183 -265 198 -8 11 -206 149 -375 262 -88 59 -185 124 -215 145 -30
22 -107 66 -171 99 -266 138 -424 279 -388 345 20 36 48 55 189 125 101 51
147 80 181 116 35 36 57 49 85 54 54 8 120 43 182 97 68 58 154 106 297 166
144 60 292 139 524 279 102 61 207 118 234 126 58 17 217 112 330 197 97 72
116 82 206 107 103 29 167 60 241 120 81 65 165 113 294 167 118 48 264 122
322 161 186 128 264 174 401 240 173 83 238 123 248 152 8 27 82 72 205 125
57 25 131 63 165 83 33 21 152 84 264 141 243 123 369 194 553 314 163 105
264 155 341 168 63 10 86 20 139 63 50 40 70 33 85 -28 16 -62 30 -426 39
-992 l7 -432 -34 -5 c-19 -3 -104 -13 -189 -21 -263 -27 -416 -69 -635 -175
-135 -65 -220 -127 -281 -203 -23 -29 -81 -90 -130 -137 -199 -193 -244 -341
-244 -805 0 -367 18 -499 82 -604 88 -141 327 -389 486 -501 262 -186 468
-264 812 -310 91 -12 171 -24 178 -26 9 -2 12 -48 12 -181 1 -232 15 -468 31
-524 28 -94 105 -141 279 -170 94 -16 1164 -24 1421 -10 241 13 279 22 291 68
5 19 24 45 48 64 50 40 57 65 71 249 13 159 7 1417 -11 2400 -5 305 -21 1252
-36 2105 -14 852 -29 1554 -33 1560 -227 294 -330 406 -621 676 -69 64 -130
127 -136 140 -6 13 -18 41 -27 61 -21 48 -78 84 -170 107 -75 19 -226 31 -312
24z"/>
<path d="M44090 13634 c-25 -2 -101 -8 -170 -14 -509 -43 -974 -201 -1280
-435 -238 -182 -394 -414 -465 -694 -75 -298 -54 -668 53 -918 93 -218 256
-379 514 -506 299 -148 632 -231 1324 -332 389 -56 473 -69 626 -100 275 -56
478 -132 568 -212 92 -83 131 -202 114 -346 -22 -178 -123 -306 -300 -380 -77
-33 -356 -101 -494 -122 -199 -29 -490 -40 -712 -27 -512 30 -902 127 -1323
327 -138 66 -226 99 -236 88 -51 -55 -285 -375 -432 -589 l-96 -141 142 -68
c330 -157 595 -257 862 -324 533 -134 1014 -189 1538 -178 442 9 756 60 1108
177 434 145 686 312 900 597 167 221 219 429 206 828 -13 397 -95 540 -476
828 -305 230 -594 318 -1671 507 -477 84 -615 118 -745 183 -140 69 -285 203
-334 306 -38 81 -37 193 2 272 66 136 256 271 476 340 194 60 398 84 661 76
417 -12 749 -85 1230 -270 108 -41 221 -82 253 -90 l57 -15 69 96 c123 175
307 457 337 517 67 138 27 185 -251 292 -451 174 -860 266 -1390 313 -124 11
-586 21 -665 14z"/>
<path d="M49553 13556 c-27 -42 -218 -413 -1025 -1986 -551 -1074 -1217 -2395
-1346 -2670 l-82 -175 63 -8 c63 -8 1147 0 1170 9 7 2 87 163 177 358 l165
353 95 6 c52 4 586 10 1185 13 l1090 7 99 -219 c54 -121 130 -292 170 -381
l71 -162 633 -1 632 0 -39 78 c-57 113 -402 840 -716 1507 -150 319 -422 895
-605 1280 -183 385 -472 995 -642 1355 -171 360 -313 658 -316 661 -4 4 -175
9 -380 12 l-373 5 -26 -42z m427 -1637 c84 -151 600 -1355 600 -1400 0 -17
-73 -78 -102 -84 -16 -4 -64 -18 -106 -32 -74 -24 -90 -25 -397 -30 -291 -5
-668 7 -767 23 -32 6 -38 11 -38 31 0 57 133 356 367 823 222 445 381 726 406
717 7 -2 23 -23 37 -48z"/>
<path d="M36503 13582 l-143 -3 -2 -737 c0 -405 -2 -762 -3 -792 -1 -30 -5
-796 -9 -1702 l-8 -1648 576 0 576 0 1 153 c0 83 2 161 4 172 2 11 5 355 6
765 1 410 4 775 7 813 l4 67 356 0 c197 0 373 -3 393 -6 36 -6 53 -29 505
-667 258 -363 571 -802 695 -976 l226 -316 645 1 c355 1 666 4 691 8 l47 7
-42 62 c-59 88 -613 850 -809 1113 -90 122 -260 351 -377 509 -118 158 -216
293 -218 300 -3 8 38 24 123 49 173 51 261 87 369 151 262 156 515 412 623
632 142 286 162 722 51 1063 -68 208 -156 347 -329 520 -216 216 -518 381
-764 419 -242 38 -2154 63 -3194 43z m2472 -862 c207 -16 304 -36 398 -83 147
-73 257 -217 288 -375 24 -129 -5 -286 -76 -408 -37 -64 -168 -195 -224 -223
-111 -57 -277 -66 -1233 -70 l-606 -2 -8 58 c-4 32 -4 182 -1 333 4 151 7 389
7 528 l0 252 658 0 c361 0 720 -5 797 -10z"/>
<path d="M20576 13572 l-1778 -2 6 -438 c3 -240 8 -581 11 -757 3 -176 7 -502
10 -725 3 -223 10 -704 15 -1070 5 -366 13 -936 16 -1267 4 -332 10 -603 13
-604 3 0 953 -1 2111 -1 l2105 -1 -2 64 c-7 200 -36 795 -39 797 -3 5 -1122
19 -2084 26 -736 6 -912 14 -939 40 -11 11 -15 114 -22 511 -5 274 -6 502 -3
506 3 5 572 9 1290 9 l1284 0 -2 448 -3 447 -1282 5 c-999 4 -1285 8 -1294 17
-10 10 -10 127 -2 559 6 300 15 550 19 554 8 7 1552 26 2734 33 l305 2 -4 420
c-2 231 -4 421 -6 423 -5 5 -771 7 -2459 4z"/>
<path d="M24331 13572 l-223 -2 6 -1093 c3 -600 8 -1159 11 -1242 3 -82 8
-682 11 -1333 5 -853 10 -1184 18 -1189 6 -4 251 -8 544 -9 l532 -1 0 226 c0
124 2 411 5 636 3 226 5 856 6 1400 1 545 4 1003 8 1020 5 25 25 -16 135 -280
227 -546 477 -1153 741 -1805 142 -349 261 -638 264 -641 3 -4 191 -11 416
-17 418 -12 535 -7 580 22 11 8 35 40 52 72 36 67 198 466 423 1039 451 1151
673 1683 706 1693 41 11 60 -676 63 -2267 0 -596 4 -1087 7 -1092 3 -5 228 -9
515 -9 l510 0 -3 2303 c-2 1266 -4 2364 -6 2440 l-3 137 -779 0 -778 0 -15
-42 c-74 -214 -659 -1857 -725 -2038 -224 -618 -406 -1066 -446 -1099 -15 -12
-19 -12 -31 0 -38 38 -188 427 -648 1679 -273 741 -548 1484 -553 1491 -5 9
-691 9 -1343 1z"/>
<path d="M31032 11288 c2 -1261 4 -2359 6 -2440 l3 -148 2118 0 2117 0 -4 108
c-2 59 -9 253 -15 432 l-12 325 -220 7 c-121 3 -805 11 -1519 17 -714 7 -1303
14 -1307 17 -5 3 -9 241 -9 529 l0 523 58 4 c31 2 613 5 1292 7 679 1 1237 4
1240 7 3 3 7 203 9 445 l3 439 -1296 0 c-1213 0 -1297 1 -1303 17 -8 21 26
1115 35 1125 4 3 444 10 977 14 534 4 979 8 990 9 11 1 262 3 558 4 l537 1 0
425 0 425 -2130 0 -2131 0 3 -2292z"/>
</g>
</svg>
